<svg width="177" height="97" viewBox="0 0 177 97" fill="none" xmlns="http://www.w3.org/2000/svg">
<path d="M82.7348 34.5692C79.7312 27.9706 74.7163 22.2137 67.9615 18.3138C50.7085 8.35283 28.6385 14.2793 18.6667 31.551C8.69487 48.8226 14.5974 70.8991 31.8504 80.8601C43.0221 87.3101 56.2135 87.0987 66.8323 81.4591" stroke="#2DC48F" stroke-width="6.94444" stroke-linecap="round"/>
<path d="M50.8333 49.0889C52.1222 48.5778 53.4111 47.9222 54.7 47.1222C56.0111 46.3222 57.1666 45.3778 58.1666 44.2889H61V67.3889H56.9666V49.6889C56.3666 50.1556 55.6111 50.6111 54.7 51.0556C53.7889 51.5 52.9111 51.8667 52.0666 52.1556L50.8333 49.0889ZM84.2786 55.8222C84.2786 59.7111 83.5675 62.7 82.1453 64.7889C80.7231 66.8556 78.7564 67.8889 76.2453 67.8889C73.7342 67.8889 71.7675 66.8556 70.3453 64.7889C68.9231 62.7 68.212 59.7111 68.212 55.8222C68.212 53.8889 68.3897 52.1778 68.7453 50.6889C69.1231 49.1778 69.6564 47.9111 70.3453 46.8889C71.0564 45.8667 71.9008 45.0889 72.8786 44.5556C73.8786 44.0222 75.0008 43.7556 76.2453 43.7556C78.7564 43.7556 80.7231 44.8 82.1453 46.8889C83.5675 48.9556 84.2786 51.9334 84.2786 55.8222ZM80.112 55.8222C80.112 54.6222 80.0453 53.5 79.912 52.4556C79.7786 51.4111 79.5564 50.5111 79.2453 49.7556C78.9564 48.9778 78.5675 48.3667 78.0786 47.9222C77.5897 47.4778 76.9786 47.2556 76.2453 47.2556C75.512 47.2556 74.8897 47.4778 74.3786 47.9222C73.8897 48.3667 73.4897 48.9778 73.1786 49.7556C72.8897 50.5111 72.6786 51.4111 72.5453 52.4556C72.4342 53.5 72.3786 54.6222 72.3786 55.8222C72.3786 57.0222 72.4342 58.1445 72.5453 59.1889C72.6786 60.2334 72.8897 61.1445 73.1786 61.9222C73.4897 62.6778 73.8897 63.2778 74.3786 63.7222C74.8897 64.1667 75.512 64.3889 76.2453 64.3889C76.9786 64.3889 77.5897 64.1667 78.0786 63.7222C78.5675 63.2778 78.9564 62.6778 79.2453 61.9222C79.5564 61.1445 79.7786 60.2334 79.912 59.1889C80.0453 58.1445 80.112 57.0222 80.112 55.8222ZM103.224 55.8222C103.224 59.7111 102.513 62.7 101.091 64.7889C99.6684 66.8556 97.7017 67.8889 95.1906 67.8889C92.6795 67.8889 90.7128 66.8556 89.2906 64.7889C87.8684 62.7 87.1573 59.7111 87.1573 55.8222C87.1573 53.8889 87.335 52.1778 87.6906 50.6889C88.0684 49.1778 88.6017 47.9111 89.2906 46.8889C90.0017 45.8667 90.8462 45.0889 91.8239 44.5556C92.8239 44.0222 93.9462 43.7556 95.1906 43.7556C97.7017 43.7556 99.6684 44.8 101.091 46.8889C102.513 48.9556 103.224 51.9334 103.224 55.8222ZM99.0573 55.8222C99.0573 54.6222 98.9906 53.5 98.8573 52.4556C98.7239 51.4111 98.5017 50.5111 98.1906 49.7556C97.9017 48.9778 97.5128 48.3667 97.0239 47.9222C96.535 47.4778 95.9239 47.2556 95.1906 47.2556C94.4573 47.2556 93.835 47.4778 93.3239 47.9222C92.835 48.3667 92.435 48.9778 92.1239 49.7556C91.835 50.5111 91.6239 51.4111 91.4906 52.4556C91.3795 53.5 91.3239 54.6222 91.3239 55.8222C91.3239 57.0222 91.3795 58.1445 91.4906 59.1889C91.6239 60.2334 91.835 61.1445 92.1239 61.9222C92.435 62.6778 92.835 63.2778 93.3239 63.7222C93.835 64.1667 94.4573 64.3889 95.1906 64.3889C95.9239 64.3889 96.535 64.1667 97.0239 63.7222C97.5128 63.2778 97.9017 62.6778 98.1906 61.9222C98.5017 61.1445 98.7239 60.2334 98.8573 59.1889C98.9906 58.1445 99.0573 57.0222 99.0573 55.8222ZM122.169 55.8222C122.169 59.7111 121.458 62.7 120.036 64.7889C118.614 66.8556 116.647 67.8889 114.136 67.8889C111.625 67.8889 109.658 66.8556 108.236 64.7889C106.814 62.7 106.103 59.7111 106.103 55.8222C106.103 53.8889 106.28 52.1778 106.636 50.6889C107.014 49.1778 107.547 47.9111 108.236 46.8889C108.947 45.8667 109.791 45.0889 110.769 44.5556C111.769 44.0222 112.891 43.7556 114.136 43.7556C116.647 43.7556 118.614 44.8 120.036 46.8889C121.458 48.9556 122.169 51.9334 122.169 55.8222ZM118.003 55.8222C118.003 54.6222 117.936 53.5 117.803 52.4556C117.669 51.4111 117.447 50.5111 117.136 49.7556C116.847 48.9778 116.458 48.3667 115.969 47.9222C115.48 47.4778 114.869 47.2556 114.136 47.2556C113.403 47.2556 112.78 47.4778 112.269 47.9222C111.78 48.3667 111.38 48.9778 111.069 49.7556C110.78 50.5111 110.569 51.4111 110.436 52.4556C110.325 53.5 110.269 54.6222 110.269 55.8222C110.269 57.0222 110.325 58.1445 110.436 59.1889C110.569 60.2334 110.78 61.1445 111.069 61.9222C111.38 62.6778 111.78 63.2778 112.269 63.7222C112.78 64.1667 113.403 64.3889 114.136 64.3889C114.869 64.3889 115.48 64.1667 115.969 63.7222C116.458 63.2778 116.847 62.6778 117.136 61.9222C117.447 61.1445 117.669 60.2334 117.803 59.1889C117.936 58.1445 118.003 57.0222 118.003 55.8222ZM148.395 44.2889H152.595V67.3889H148.395V57.1556H138.361V67.3889H134.161V44.2889H138.361V53.5222H148.395V44.2889ZM164.653 44.0556C168.008 44.0556 170.575 44.6667 172.353 45.8889C174.153 47.1111 175.053 49.0222 175.053 51.6222C175.053 52.9778 174.808 54.1445 174.32 55.1222C173.853 56.0778 173.164 56.8667 172.253 57.4889C171.342 58.0889 170.231 58.5334 168.92 58.8222C167.608 59.1111 166.108 59.2556 164.42 59.2556H162.32V67.3889H158.12V44.6222C159.097 44.4 160.175 44.2556 161.353 44.1889C162.553 44.1 163.653 44.0556 164.653 44.0556ZM164.953 47.6889C163.886 47.6889 163.008 47.7222 162.32 47.7889V55.6556H164.353C166.375 55.6556 167.931 55.3778 169.02 54.8222C170.108 54.2445 170.653 53.1667 170.653 51.5889C170.653 50.8334 170.508 50.2 170.22 49.6889C169.931 49.1778 169.531 48.7778 169.02 48.4889C168.508 48.2 167.897 48 167.186 47.8889C166.497 47.7556 165.753 47.6889 164.953 47.6889Z" fill="white"/>
</svg>
